<?xml version="1.0" encoding="utf-8"?>
<!-- Generator: Adobe Illustrator 27.6.1, SVG Export Plug-In . SVG Version: 6.00 Build 0)  -->
<svg version="1.1" id="Layer_1" xmlns="http://www.w3.org/2000/svg" xmlns:xlink="http://www.w3.org/1999/xlink" x="0px" y="0px"
	 viewBox="0 0 91.7 91.6" style="enable-background:new 0 0 91.7 91.6;" xml:space="preserve">
<style type="text/css">
	.st0{opacity:0.444;filter:url(#g);enable-background:new    ;}
	.st1{fill:none;stroke:#000000;stroke-width:0.5118;stroke-miterlimit:4.152;}
	.st2{stroke:#000000;stroke-width:0.493;}
	.st3{fill:url(#SVGID_1_);stroke:#000000;stroke-width:0.5;}
	.st4{opacity:0.493;fill:url(#SVGID_00000068662104071825072280000003885553718846506685_);enable-background:new    ;}
	.st5{opacity:0.962;filter:url(#j);enable-background:new    ;}
	.st6{fill-rule:evenodd;clip-rule:evenodd;fill:#FFFFFF;}
	.st7{opacity:0.909;filter:url(#k);enable-background:new    ;}
	.st8{opacity:0.357;fill:url(#SVGID_00000027597909977636250190000005868368625617132193_);enable-background:new    ;}
	.st9{fill:url(#SVGID_00000108277064714549229910000018286050501943434920_);}
	.st10{fill:url(#SVGID_00000096031719563326583980000014376387385656079005_);}
	.st11{opacity:0.448;fill:url(#SVGID_00000100360039249996538830000007917779227961073290_);enable-background:new    ;}
	.st12{opacity:0.668;filter:url(#p);enable-background:new    ;}
</style>
<filter  height="1.84" id="p" style="color-interpolation-filters:sRGB" width="1.39" x="-.2" y="-.42">
	<feGaussianBlur  stdDeviation="1.7"></feGaussianBlur>
</filter>
<filter  height="1.37" id="k" style="color-interpolation-filters:sRGB" width="1.17" x="-.09" y="-.19">
	<feGaussianBlur  stdDeviation=".75"></feGaussianBlur>
</filter>
<filter  height="1.51" id="j" style="color-interpolation-filters:sRGB" width="1.32" x="-.16" y="-.26">
	<feGaussianBlur  stdDeviation=".75"></feGaussianBlur>
</filter>
<filter  height="1.1" id="g" style="color-interpolation-filters:sRGB" width="1.1" x="-.05" y="-.05">
	<feGaussianBlur  stdDeviation="1.77"></feGaussianBlur>
</filter>
<g>
	<g class="st0">
		<path d="M45.7,0C20.9-0.6-1.2,22.1,0.1,46.9C0,71.7,23.1,93.3,47.9,91.5c24.9-0.5,46-24.3,43.5-49.1C90.1,19.1,69.1-0.4,45.7,0
			L45.7,0z"/>
		<path class="st1" d="M45.7,0C20.9-0.6-1.2,22.1,0.1,46.9C0,71.7,23.1,93.3,47.9,91.5c24.9-0.5,46-24.3,43.5-49.1
			C90.1,19.1,69.1-0.4,45.7,0L45.7,0z"/>
	</g>
	<path class="st2" d="M45.8,1.7C21.8,1.2,0.5,23,1.8,46.9C1.7,70.8,24,91.6,47.9,89.9c24-0.5,44.3-23.4,42-47.2
		C88.5,20.1,68.3,1.3,45.8,1.7L45.8,1.7z"/>
	<circle cx="45.8" cy="45.8" r="42.7"/>
	
		<linearGradient id="SVGID_1_" gradientUnits="userSpaceOnUse" x1="-17.7311" y1="-18.1669" x2="10.0489" y2="-99.1669" gradientTransform="matrix(1 0 0 -1 49.6 -12.9989)">
		<stop  offset="0" style="stop-color:#A30202"/>
		<stop  offset="0.41" style="stop-color:#D00121"/>
		<stop  offset="0.44" style="stop-color:#710114"/>
		<stop  offset="0.5" style="stop-color:#FEFEFE"/>
		<stop  offset="0.57" style="stop-color:#CBBEBD"/>
		<stop  offset="0.59" style="stop-color:#FFFFFF"/>
		<stop  offset="0.94" style="stop-color:#FFFFFF"/>
		<stop  offset="1" style="stop-color:#FFFFFF"/>
	</linearGradient>
	<path class="st3" d="M88.6,45.8c0,23.6-19.1,42.7-42.7,42.7c0,0,0,0,0,0c-23.6,0-42.7-19.1-42.7-42.7c0-23.6,19.1-42.7,42.7-42.7
		c0,0,0,0,0,0C69.4,3.1,88.5,22.2,88.6,45.8C88.6,45.8,88.6,45.8,88.6,45.8L88.6,45.8z"/>
	
		<linearGradient id="SVGID_00000139251889985065136310000001834557611155550087_" gradientUnits="userSpaceOnUse" x1="-45.1906" y1="-57.871" x2="38.4394" y2="-27.681" gradientTransform="matrix(1 0 0 -1 49.6 -12.9989)">
		<stop  offset="0" style="stop-color:#57000B"/>
		<stop  offset="1" style="stop-color:#830017"/>
	</linearGradient>
	<path style="opacity:0.493;fill:url(#SVGID_00000139251889985065136310000001834557611155550087_);enable-background:new    ;" d="
		M45.9,3.1C22.3,3.1,3.1,22.2,3.1,45.8c0,8.2,2.4,16.3,6.9,23.2c-4.6-7.1-3.2-10.5-3.2-16c0-22.9,18.6-41.4,41.4-41.4
		c17.3,0,36.9,9.9,39.8,26.5c0.3,1.9,0.1,3.8,0.6,5.8C87.6,21.2,68.7,3.1,45.9,3.1L45.9,3.1z"/>
	<g class="st5">
		<path class="st6" d="M40,4.8c-0.9-0.2-1.8-0.3-2.7,0c-3.2,0.4-5.7,1.1-6.7,2.4c-0.4,0.8-0.3,3.8,0.7,3.7c3-0.4,4.6,0.6,6.7-0.1
			c1.2-0.4,2.6-1,3.2-2.1c0.5-0.9,0.6-2.1,0.2-3C41,5.3,40.5,5,40,4.8L40,4.8z"/>
	</g>
	<g class="st7">
		<path class="st6" d="M47.5,5.8c3.2,0.4,15.4,4.1,20.4,7.5c0.6,0.1,0.9-1.7,0.6-1.9c-4.7-2.6-10.1-5.5-15.9-6.2
			C51,4.9,49.6,4.7,47.5,5.8L47.5,5.8z"/>
	</g>
	
		<linearGradient id="SVGID_00000054239841532674972470000018401488695689437618_" gradientUnits="userSpaceOnUse" x1="-0.9729" y1="-66.8105" x2="9.6071" y2="-98.9105" gradientTransform="matrix(1 0 0 -1 49.6 -12.9989)">
		<stop  offset="0" style="stop-color:#FFFFFF;stop-opacity:0"/>
		<stop  offset="0.39" style="stop-color:#D5C9C9"/>
		<stop  offset="1" style="stop-color:#4E4542"/>
	</linearGradient>
	<path style="opacity:0.357;fill:url(#SVGID_00000054239841532674972470000018401488695689437618_);enable-background:new    ;" d="
		M78.2,74.3c-15.6,17.7-42.6,19.5-60.3,4c0,0,0,0,0,0C11.7,72.8,7.2,65.7,5,57.8c2.4,4.9,5.8,9.4,9.9,13
		c17.2,15.1,43.4,13.3,58.4-3.9C86.1,52.3,87,30.8,75.6,15.2C92.1,31,93.3,57,78.2,74.3z"/>
	<g transform="translate(49.6 -150.7)">
		<path d="M-45.8,205.1l80.6-27.2c1.4,3.2,3,6.4,3.4,10.1l-80.5,27.2C-43.8,212-45,208.6-45.8,205.1z"/>
		<circle cx="-3.8" cy="196.5" r="14.8"/>
		
			<radialGradient id="SVGID_00000013184585375376503860000010387291085248148363_" cx="-53.3887" cy="91.8605" r="11.97" gradientTransform="matrix(1 0 0 -1 49.6 288.4011)" gradientUnits="userSpaceOnUse">
			<stop  offset="0" style="stop-color:#FFFFFF;stop-opacity:0.8519"/>
			<stop  offset="0.67" style="stop-color:#CDCDCD;stop-opacity:0.9686"/>
			<stop  offset="1" style="stop-color:#FFFFFF"/>
		</radialGradient>
		<circle style="fill:url(#SVGID_00000013184585375376503860000010387291085248148363_);" cx="-3.8" cy="196.5" r="12"/>
		<circle cx="-3.8" cy="196.5" r="8.9"/>
		
			<radialGradient id="SVGID_00000000942140293544674090000010512890796405852043_" cx="-53.3887" cy="91.8605" r="8.03" gradientTransform="matrix(1 0 0 -1 49.6 288.4011)" gradientUnits="userSpaceOnUse">
			<stop  offset="0" style="stop-color:#FFFFFF;stop-opacity:0.8519"/>
			<stop  offset="1" style="stop-color:#FFFFFF"/>
		</radialGradient>
		<circle style="fill:url(#SVGID_00000000942140293544674090000010512890796405852043_);" cx="-3.8" cy="196.5" r="8"/>
	</g>
	
		<linearGradient id="SVGID_00000139293079781961467790000004999013370918650504_" gradientUnits="userSpaceOnUse" x1="17.9289" y1="-60.9466" x2="38.6689" y2="-63.5265" gradientTransform="matrix(1 0 0 -1 49.6 -12.9989)">
		<stop  offset="0" style="stop-color:#FFFFFF;stop-opacity:0"/>
		<stop  offset="1" style="stop-color:#FFFFFF"/>
	</linearGradient>
	<path style="opacity:0.448;fill:url(#SVGID_00000139293079781961467790000004999013370918650504_);enable-background:new    ;" d="
		M70.9,11.5l-7,72.9C77.5,78,86.7,64.9,88.1,49.9C89.5,35,83,20.4,70.9,11.5L70.9,11.5z"/>
	<g class="st12">
		<path class="st6" d="M47.5,83.7c3.2-0.4,15.4-4.1,20.4-7.5c0.6-0.1,0.9,1.7,0.6,1.9c-4.7,2.6-10.1,5.5-15.9,6.2
			C51,84.6,49.6,84.8,47.5,83.7L47.5,83.7z"/>
	</g>
</g>
</svg>
